<svg xmlns="http://www.w3.org/2000/svg" xmlns:xlink="http://www.w3.org/1999/xlink" width="15" height="15" viewBox="0 0 15 15"><defs><path id="27zga" d="M870.43 1767v-5.66c0-1.37-.56-2.16-1.42-2.16-.76 0-1.47.38-1.84.98-.12.2-.2.64-.2.94v5.87l-2.97.03v-11l2.6.18.14 1.88h.07a3.58 3.58 0 0 1 3.2-1.7c2.13 0 4 1.43 4 4.56v6.05zM859 1756h3v11l-3-.03zm1.71-.7a1.61 1.61 0 0 1-1.68-1.66c0-.93.69-1.65 1.73-1.65 1.03 0 1.67.72 1.7 1.65 0 .92-.67 1.66-1.75 1.66z"/></defs><g><g opacity="1" transform="translate(-859 -1752)"><use fill="#fff" xlink:href="#27zga"/></g></g></svg>