<svg xmlns="http://www.w3.org/2000/svg" xmlns:xlink="http://www.w3.org/1999/xlink" width="20" height="20" viewBox="0 0 20 20"><defs><path id="cv78a" d="M788 1760a9.95 9.95 0 0 1-12.84 9.58c.51-.8.85-1.52 1.02-2.13l.7-2.75c.17.34.5.63.95.88.46.25.96.37 1.49.37 1.05 0 1.98-.3 2.8-.9a5.77 5.77 0 0 0 1.92-2.45c.45-1.04.68-2.2.68-3.51 0-1-.26-1.92-.78-2.79a5.86 5.86 0 0 0-2.24-2.12 6.7 6.7 0 0 0-3.32-.82c-.91 0-1.76.13-2.55.38a6.65 6.65 0 0 0-3.44 2.44 5.96 5.96 0 0 0-1.15 3.43c0 .9.18 1.7.52 2.38.35.69.86 1.17 1.53 1.45.26.1.42.01.5-.26a15.38 15.38 0 0 0 .2-.8.6.6 0 0 0-.14-.56 2.96 2.96 0 0 1-.67-1.96 4.72 4.72 0 0 1 4.92-4.8c1.31 0 2.34.36 3.07 1.07a3.7 3.7 0 0 1 1.1 2.78c0 1.47-.3 2.73-.9 3.76-.59 1.03-1.35 1.55-2.28 1.55a1.6 1.6 0 0 1-1.27-.57 1.48 1.48 0 0 1-.3-1.36c.07-.3.18-.7.34-1.22.16-.5.3-.95.4-1.34.1-.38.14-.71.14-.98 0-.43-.11-.8-.35-1.08a1.22 1.22 0 0 0-1-.43c-.54 0-1 .25-1.37.74-.37.5-.56 1.11-.56 1.85 0 .63.11 1.16.33 1.59l-1.3 5.44c-.14.6-.2 1.38-.16 2.3A9.97 9.97 0 0 1 768 1760a9.95 9.95 0 0 1 10-10 9.95 9.95 0 0 1 10 10z"/></defs><g><g opacity="1" transform="translate(-768 -1750)"><use fill="#fff" xlink:href="#cv78a"/></g></g></svg>