<svg xmlns="http://www.w3.org/2000/svg" xmlns:xlink="http://www.w3.org/1999/xlink" width="23" height="25" viewBox="0 0 23 25"><defs><path id="1ui4a" d="M434.17 404.5v6.16c0 .85-.69 1.55-1.54 1.55-.84 0-1.54-.7-1.54-1.55v-6.16c0-.85.7-1.54 1.54-1.54.85 0 1.54.7 1.54 1.54zm-18.49 0v6.16c0 .85-.69 1.55-1.54 1.55-.85 0-1.54-.7-1.54-1.55v-6.16c0-.85.7-1.54 1.54-1.54.85 0 1.54.7 1.54 1.54zm.77 0h13.87v8.48a2.31 2.31 0 0 1-2.3 2.3h-.78v3.09c0 .85-.7 1.54-1.54 1.54-.85 0-1.54-.7-1.54-1.54v-3.08h-1.54v3.08c0 .85-.7 1.54-1.54 1.54-.85 0-1.54-.7-1.54-1.54v-3.08h-.78a2.31 2.31 0 0 1-2.3-2.31zm13.83-1.54H416.5a6.94 6.94 0 0 1 4.03-5.55l-.97-1.87a.2.2 0 1 1 .34-.18l.99 1.9a6.92 6.92 0 0 1 5 0l.99-1.9a.2.2 0 0 1 .34.18l-.98 1.87a6.94 6.94 0 0 1 4.04 5.55zm-8.86-2.31a1.12 1.12 0 1 0-2.23 0 1.12 1.12 0 0 0 2.23 0zm6.17 0a1.12 1.12 0 1 0-2.24 0 1.12 1.12 0 0 0 2.24 0z"/></defs><g><g opacity="1" transform="translate(-412 -395)"><use fill="#ffffff" xlink:href="#1ui4a"/></g></g></svg>