<svg xmlns="http://www.w3.org/2000/svg" xmlns:xlink="http://www.w3.org/1999/xlink" width="19" height="18" viewBox="0 0 19 18"><defs><path id="kst3a" d="M823.48 1766.46c0-.15-.02-.3-.05-.44a6.07 6.07 0 0 0-.1-.38c-.04-.12-.1-.25-.2-.38a43.1 43.1 0 0 1-.22-.33c-.06-.09-.16-.2-.29-.32a16.3 16.3 0 0 0-.64-.55l-.34-.25-.35-.25-.33-.22a8.58 8.58 0 0 0-1.69.05c-.38.05-.77.14-1.17.27-.4.13-.76.3-1.06.5a2.38 2.38 0 0 0-.65 3.28c.25.39.59.69 1 .91a5.48 5.48 0 0 0 2.68.66c.42 0 .83-.05 1.22-.14a4.1 4.1 0 0 0 1.08-.42c.34-.2.61-.46.8-.8.2-.34.3-.73.3-1.19zm-1.3-9.32a7.1 7.1 0 0 0-.69-2.8 3.1 3.1 0 0 0-.9-1.12c-.4-.3-.82-.44-1.3-.44-.67 0-1.19.25-1.56.75-.37.5-.55 1.09-.55 1.78a4.96 4.96 0 0 0 .5 2.2c.18.37.38.7.61 1 .24.3.52.55.85.74.33.19.68.28 1.05.28.7 0 1.2-.22 1.52-.66.31-.43.47-1.01.47-1.73zm-1.42-5.14h4.73l-1.46.85h-1.46c.5.33.9.78 1.19 1.37a4.16 4.16 0 0 1 .17 3.25c-.17.41-.37.75-.6 1-.24.25-.48.48-.72.7-.24.2-.44.43-.6.66-.17.22-.25.47-.25.73 0 .18.06.37.17.55.12.18.28.35.47.52l.63.52c.23.18.46.38.7.6.23.22.44.46.63.71a3.61 3.61 0 0 1 .64 2.07c0 1.16-.5 2.17-1.51 3.05-1.1.95-2.61 1.42-4.55 1.42a7.9 7.9 0 0 1-2.6-.47 4.97 4.97 0 0 1-1.18-.63 2.92 2.92 0 0 1-.84-.96c-.21-.4-.32-.83-.32-1.31 0-.44.13-.93.4-1.47a3.3 3.3 0 0 1 1.04-1.2c.46-.33.98-.58 1.57-.76a12.32 12.32 0 0 1 3.3-.53c-.46-.6-.7-1.14-.7-1.62a1.5 1.5 0 0 1 .08-.46 35.97 35.97 0 0 0 .16-.47c-.29.04-.54.06-.76.06-1.07 0-2-.36-2.76-1.06a3.46 3.46 0 0 1-1.15-2.66c0-1.01.34-1.92 1.03-2.71.68-.8 1.53-1.31 2.53-1.53a9.68 9.68 0 0 1 2.02-.22zm12.24 3v1h-3v3h-1v-3h-3v-1h3v-3h1v3z"/></defs><g><g clip-path="url(#clip-1558)" opacity="1" transform="translate(-814 -1752)"><use fill="#fff" xlink:href="#kst3a"/></g></g></svg>