<svg xmlns="http://www.w3.org/2000/svg" xmlns:xlink="http://www.w3.org/1999/xlink" width="43" height="43" viewBox="0 0 43 43"><defs><path id="y0zva" d="M385.4 722.6c-.16.91-.4 1.8-.7 2.64l3.8 2.62-2.75 4.76-4.17-1.98c-.59.7-1.23 1.34-1.92 1.93l1.97 4.17-4.76 2.74-2.61-3.79c-.85.3-1.73.54-2.64.7l-.37 4.6h-5.5l-.37-4.6c-.9-.16-1.78-.4-2.63-.7l-2.62 3.8-4.76-2.75 1.98-4.17c-.7-.59-1.34-1.24-1.93-1.93l-4.16 1.98-2.75-4.76 3.79-2.62c-.3-.84-.54-1.73-.7-2.63l-4.6-.37v-5.5l4.6-.37c.16-.9.4-1.78.7-2.63l-3.8-2.62 2.76-4.76 4.16 1.98c.6-.7 1.24-1.34 1.93-1.93l-1.98-4.16 4.76-2.75 2.62 3.79c.85-.3 1.73-.54 2.63-.7l.37-4.6h5.5l.37 4.6c.9.16 1.79.4 2.64.7l2.61-3.8 4.76 2.76-1.97 4.16c.69.6 1.33 1.24 1.92 1.93l4.17-1.98 2.75 4.76-3.8 2.62c.3.85.54 1.73.7 2.63l4.6.37v5.5zm-12.6-3.1a4.3 4.3 0 1 0-8.6 0 4.3 4.3 0 0 0 8.6 0z"/></defs><g><g transform="translate(-347 -698)"><use fill="#fff" xlink:href="#y0zva"/></g></g></svg>