<svg xmlns="http://www.w3.org/2000/svg" xmlns:xlink="http://www.w3.org/1999/xlink" width="20" height="26" viewBox="0 0 20 26"><defs><path id="bb2ia" d="M364.08 411.8c-.03.09-.52 1.77-1.7 3.5-1.04 1.51-2.1 3-3.78 3.04-1.65.03-2.18-.98-4.07-.98-1.89 0-2.48.95-4.04 1-1.62.07-2.86-1.61-3.9-3.11-2.11-3.06-3.73-8.65-1.56-12.42a6.03 6.03 0 0 1 5.1-3.1c1.6-.03 3.1 1.08 4.07 1.08.98 0 2.8-1.33 4.72-1.13.8.03 3.06.32 4.51 2.44-.11.07-2.69 1.57-2.66 4.7.03 3.72 3.27 4.97 3.31 4.98zm-10.07-12.4a5.17 5.17 0 0 1 1.3-3.82 5.52 5.52 0 0 1 3.64-1.87 5.43 5.43 0 0 1-1.28 3.94 4.58 4.58 0 0 1-3.66 1.75z"/></defs><g><g opacity="1" transform="translate(-344 -393)"><use fill="#ffffff" xlink:href="#bb2ia"/></g></g></svg>