<svg xmlns="http://www.w3.org/2000/svg" xmlns:xlink="http://www.w3.org/1999/xlink" width="47" height="47" viewBox="0 0 47 47"><defs><path id="f04fa" d="M1227.5 697c7.25 0 13.74 3.29 18.05 8.45.62-.34 1-.61.47-.22a.7.7 0 0 0-.28.45 23.5 23.5 0 1 1-18.24-8.68zm-17.62 23.5a17.62 17.62 0 1 0 35.19-1.46c-1.2.4-3.01.51-3.16 1.1-.42 1.67-3.21 1.92-3.21 1.92s-3.4 2.66-4.13 2.11c-.74-.55.82-4.86 1.56-5.14.73-.27 0-2.2 0-2.75 0-.26-2.82-4.55-2.76-4.5-.48-.39-.27-4.04.92-4.13 1.2-.1 5.14.64 4.4 1.93-.26.46.34.4 1.18.15.12-.17.27-.34.44-.6.12-.19.18-.36.2-.52a17.62 17.62 0 0 0-30.64 11.89zm13.4-10.46c-.94 1.13-.82 1.58-.68 1.73a2.6 2.6 0 0 0-.42-.08c-1.47-.19-1.38 4.22-.74 4.95.64.74.92 1.93 1.84 1.1 1.37 0-.37.19 2.1.47 2.49.27 2.67-.65 2.58 1.28-.1 1.93-1.47 2.2-1.75 3.3-.27 1.1-1.37 2.67-1.19 3.59.19.91.1 1.28.46 2.2.37.92.37 4.04-.27 4.04-.65 0-1.29-2.57-1.29-2.57l-2.02-2.02-1.65 2.3-1.84-.37-1.28-.92s-3.95-.19-4.13-1.47c-.19-1.29-2.48-2.76-2.48-4.32 0-1.56-1.01-4.13-.19-4.68.83-.55.83.37 1.66-.09.82-.46.55-1.2 2.02-1.2 1.46 0 2.93-.82 3.4-1.55.45-.74 2.2-6.15 3.85-6.15s3.78-1.67 2.02.46zm-.68 1.73c.2.06.1.1 0 0zm13.71 18c.46.83 3.5 1.29 2.2 1.1-1.28-.18-1 2.48-2.66 2.2-1.65-.27-2.48.83-4.13.83-1.4 0-3.4-1.56-3.94-2.2-.56-.64 1.28-.1 2.01-1.1.74-1.01 1.01-.83 1.93-1.01.92-.19.83-1.01 1.56-1.1.74-.1 2.57.46 3.03 1.28zm-17.27-24.29c4.04-2.75 6.68-2.33 8.34-2.03 1 .19 3.09.4 3.09.4l-2.5 3.85-1.67-.46s-4.37 2.94-5.67.73c-1.3-2.2-2.93.35-5.46 2.5-2.53 2.14-.17-2.24 3.87-4.99z"/></defs><g><g transform="translate(-1204 -697)"><use fill="#fff" xlink:href="#f04fa"/></g></g></svg>